<?xml version="1.0" encoding="UTF-8"?>
<svg id="Layer_2" data-name="Layer 2" xmlns="http://www.w3.org/2000/svg" viewBox="0 0 22.23 40.19">
  <defs>
    <style>
      .cls-1 {
        fill: #fff;
      }
    </style>
  </defs>
  <g id="Layer_1-2" data-name="Layer 1">
    <path class="cls-1" d="m4.37,20.13c.24.22,15.82-15.32,16.81-16.32.38-.38.76-.78.96-1.27.37-.91-.43-2.86-1.65-2.49-.36.11-.65.38-.92.65C13.72,6.38,7.93,12.11,1.87,17.57c-.73.66-2,1.65-1.86,2.73s1.27,1.84,2,2.48c5.96,5.17,11.43,10.78,16.95,16.4.34.35.7.71,1.16.89,1.59.63,2.36-1.41,1.84-2.61-.3-.69-.86-1.23-1.4-1.75-5.41-5.18-10.81-10.37-16.19-15.58Z"/>
  </g>
</svg>