<?xml version="1.0" encoding="utf-8"?>
<!-- Generator: Adobe Illustrator 27.1.1, SVG Export Plug-In . SVG Version: 6.00 Build 0)  -->
<svg version="1.1" id="Layer_2_00000003084668693649261980000009321177043357727625_"
	 xmlns="http://www.w3.org/2000/svg" xmlns:xlink="http://www.w3.org/1999/xlink" x="0px" y="0px" viewBox="0 0 58 53"
	 style="enable-background:new 0 0 58 53;" xml:space="preserve">
<style type="text/css">
	.st0{fill:#51CAF5;}
	.st1{fill:none;stroke:#FFFFFF;stroke-width:3;stroke-miterlimit:10;}
</style>
<rect x="-22.4" y="-21.6" class="st0" width="104.6" height="101.8"/>
<g id="Layer_1-2">
	<g>
		<path class="st1" d="M49.5,9c-1.7-0.2-3.3-0.1-5,0.1c-0.3,0-0.7,0.1-1-0.2c-0.2-0.2-0.4-0.5-0.5-0.7c-0.7-1.5-1.3-3-2-4.5
			c-0.3-0.7-0.6-1.4-1.2-1.8c-0.5-0.3-1.1-0.3-1.7-0.3c-5.8,0-11.7,0-17.5,0c-0.6,0-1.2,0-1.8,0.2c-2.1,0.9-2.3,4-3.5,6.1
			c-0.2,0.4-0.5,0.8-0.9,1c-0.4,0.2-1,0.2-1.5,0.2C10.1,9,6.8,8.6,4.4,10.5s-2.9,4.8-2.9,7.9c0,7.8,0,15.5-0.1,23.3
			c0,2.2,0,4.6,1.1,6.4c1.8,3.1,5.7,3.4,8.9,3.4c11.5,0,22.9,0,34.4,0c1.9,0,3.8,0,5.7-0.6s3.5-2,4.3-4c0.5-1.3,0.5-2.7,0.5-4.1
			c0-7.5,0.1-15,0.1-22.4c0-3,0-6.3-1.8-8.6c-1.2-1.6-3-2.4-4.8-2.7C49.8,9,49.6,9,49.5,9L49.5,9z"/>
		<circle class="st1" cx="29.2" cy="28.7" r="12.5"/>
	</g>
</g>
</svg>
