<?xml version="1.0" encoding="UTF-8"?>
<svg id="Layer_2" data-name="Layer 2" xmlns="http://www.w3.org/2000/svg" xmlns:xlink="http://www.w3.org/1999/xlink" viewBox="0 0 52.44 52.7">
  <defs>
    <style>
      .cls-1 {
        stroke: url(#linear-gradient-5);
      }

      .cls-1, .cls-2, .cls-3, .cls-4, .cls-5 {
        fill: none;
        stroke-miterlimit: 10;
        stroke-width: 2.7px;
      }

      .cls-2 {
        stroke: url(#linear-gradient-3);
      }

      .cls-3 {
        stroke: url(#linear-gradient-4);
      }

      .cls-4 {
        stroke: url(#linear-gradient-2);
      }

      .cls-5 {
        stroke: url(#linear-gradient);
      }
    </style>
    <linearGradient id="linear-gradient" x1="14.86" y1="6.98" x2="37.07" y2="45.46" gradientUnits="userSpaceOnUse">
      <stop offset="0" stop-color="#f78f34"/>
      <stop offset=".55" stop-color="#d44952"/>
      <stop offset=".91" stop-color="#a63888"/>
    </linearGradient>
    <linearGradient id="linear-gradient-2" x1="19.42" y1="15.21" x2="33.02" y2="38.77" xlink:href="#linear-gradient"/>
    <linearGradient id="linear-gradient-3" x1="14.15" y1="5.57" x2="38.29" y2="47.39" xlink:href="#linear-gradient"/>
    <linearGradient id="linear-gradient-4" x1="13.12" y1="3.52" x2="39.34" y2="48.95" xlink:href="#linear-gradient"/>
    <linearGradient id="linear-gradient-5" x1="13.11" y1="3.51" x2="39.33" y2="48.93" xlink:href="#linear-gradient"/>
  </defs>
  <g id="Layer_1-2" data-name="Layer 1">
    <g>
      <line class="cls-5" x1="25.97" y1="1.35" x2="25.97" y2="51.09"/>
      <line class="cls-4" x1="1.35" y1="26.99" x2="51.09" y2="26.99"/>
      <ellipse class="cls-2" cx="26.22" cy="26.48" rx="14.87" ry="24.87"/>
      <path class="cls-3" d="m12.03,46.64c3.38-3.72,8.25-6.06,13.68-6.06s10.67,2.52,14.06,6.5c6.82-4.44,11.33-12.12,11.33-20.86,0-8.25-4.02-15.56-10.2-20.08-3.37,4.41-8.69,7.26-14.67,7.26s-11.3-2.85-14.67-7.26C5.37,10.67,1.35,17.97,1.35,26.22s4.23,15.93,10.68,20.42Z"/>
      <circle class="cls-1" cx="26.22" cy="26.22" r="24.87"/>
    </g>
  </g>
</svg>