<?xml version="1.0" encoding="UTF-8"?>
<svg id="Layer_2" data-name="Layer 2" xmlns="http://www.w3.org/2000/svg" xmlns:xlink="http://www.w3.org/1999/xlink" viewBox="0 0 58 53">
  <defs>
    <style>
      .cls-1 {
        stroke: url(#linear-gradient);
      }

      .cls-1, .cls-2 {
        fill: none;
        stroke-miterlimit: 10;
        stroke-width: 3px;
      }

      .cls-2 {
        stroke: url(#linear-gradient-2);
      }
    </style>
    <linearGradient id="linear-gradient" x1="13.25" y1="3.17" x2="44.32" y2="56.99" gradientUnits="userSpaceOnUse">
      <stop offset="0" stop-color="#f78f34"/>
      <stop offset=".17" stop-color="#ef843c"/>
      <stop offset=".26" stop-color="#e36a45"/>
      <stop offset=".36" stop-color="#da584c"/>
      <stop offset=".46" stop-color="#d54c50"/>
      <stop offset=".56" stop-color="#d44952"/>
      <stop offset=".96" stop-color="#a63888"/>
    </linearGradient>
    <linearGradient id="linear-gradient-2" x1="22.22" y1="16.59" x2="36.22" y2="40.84" xlink:href="#linear-gradient"/>
  </defs>
  <g id="Layer_1-2" data-name="Layer 1">
    <g>
      <path class="cls-1" d="m49.47,8.97c-1.66-.21-3.34-.05-5.01.1-.35.03-.74.06-1.03-.17-.23-.17-.36-.46-.48-.74-.65-1.51-1.3-3.01-1.95-4.52-.29-.68-.61-1.39-1.19-1.77-.5-.33-1.12-.34-1.7-.34-5.84,0-11.69-.02-17.53-.03-.61,0-1.25,0-1.82.24-2.08.86-2.3,4.01-3.49,6.11-.24.42-.53.81-.92,1.03-.45.25-.97.25-1.47.24-2.76-.09-6.05-.55-8.45,1.35s-2.86,4.83-2.86,7.92c-.02,7.76-.04,15.52-.06,23.27,0,2.21.03,4.56,1.11,6.4,1.82,3.08,5.66,3.4,8.95,3.41,11.46,0,22.93.02,34.39.03,1.91,0,3.85,0,5.67-.63s3.55-1.97,4.27-3.96c.46-1.28.48-2.7.49-4.09.04-7.48.08-14.96.12-22.44.02-3.02-.05-6.32-1.78-8.62-1.18-1.57-2.98-2.42-4.78-2.73-.15-.03-.31-.05-.46-.07Z"/>
      <circle class="cls-2" cx="29.22" cy="28.71" r="12.5"/>
    </g>
  </g>
</svg>