<?xml version="1.0" encoding="UTF-8"?>
<svg id="Layer_2" data-name="Layer 2" xmlns="http://www.w3.org/2000/svg" xmlns:xlink="http://www.w3.org/1999/xlink" viewBox="0 0 58 53">
  <defs>
    <style>
      .cls-1 {
        fill: none;
        stroke: url(#linear-gradient);
        stroke-miterlimit: 10;
        stroke-width: 3px;
      }
    </style>
    <linearGradient id="linear-gradient" x1="15.78" y1="7.02" x2="43.27" y2="54.63" gradientUnits="userSpaceOnUse">
      <stop offset="0" stop-color="#f78f34"/>
      <stop offset=".17" stop-color="#ef843c"/>
      <stop offset=".26" stop-color="#e36a45"/>
      <stop offset=".36" stop-color="#da584c"/>
      <stop offset=".46" stop-color="#d54c50"/>
      <stop offset=".56" stop-color="#d44952"/>
      <stop offset=".96" stop-color="#a63888"/>
    </linearGradient>
  </defs>
  <g id="Layer_1-2" data-name="Layer 1">
    <path class="cls-1" d="m55.77,24.06L30.58,2.08c-.89-.77-2.27-.77-3.15,0L2.23,24.06c-1.52,1.33-.51,3.69,1.58,3.69h5.97v20.52c0,1.78,1.55,3.22,3.47,3.22h9.27v-14.28c0-1.5,1.31-2.72,2.93-2.72h7.12c1.62,0,2.93,1.22,2.93,2.72v14.28h9.19c1.92,0,3.47-1.44,3.47-3.22v-20.52h6.04c2.09,0,3.1-2.37,1.58-3.69Z"/>
  </g>
</svg>